# xmcd
#
# Track frame offsets:
#	150
#	11160
#	27539
#	37917
#	52505
#	62946
#	87001
#	108862
#	121817
#	137472
#	151116
#	163185
#	175725
#	194399
#	213013
#	229580
#	241777
#	253075
#	265414
#	284704
#
# Disc length: 3968 seconds
#
# Revision: 1
# Processed by: cddbd v1.5.2PL0 Copyright (c) Steve Scherf et al.
# Submitted via: audiograbber 1.83.01
#
DISCID=050f7e14
DTITLE=Taxmeni - The Best Of
DYEAR=1900
DGENRE=Country
TTITLE0=Hledany muz
TTITLE1=Nejvetsi ten kovboj co jsem znal
TTITLE2=Koule na noze
TTITLE3=Johnny Reb
TTITLE4=Tulácká
TTITLE5=Tisic dnu
TTITLE6=Buraky
TTITLE7=Nebyla to fama
TTITLE8=Jak ty tejdny line jdou
TTITLE9=Mr. Banjo
TTITLE10=Matka my zeny
TTITLE11=Bitva o New Orleans
TTITLE12=Dlouhy cerny zavoj
TTITLE13=Jo, vsichni to maj
TTITLE14=Hobo song
TTITLE15=Haleluja, ja jdu za tebou
TTITLE16=Klaunu a blaznu sef
TTITLE17=Jedu dal
TTITLE18=Dedeckovy hodiny
TTITLE19=Na sever! na Aljasku!
EXTD=
EXTT0=
EXTT1=
EXTT2=
EXTT3=
EXTT4=
EXTT5=
EXTT6=
EXTT7=
EXTT8=
EXTT9=
EXTT10=
EXTT11=
EXTT12=
EXTT13=
EXTT14=
EXTT15=
EXTT16=
EXTT17=
EXTT18=
EXTT19=
PLAYORDER=
